# xmcd CD database file
#
# Track frame offsets:
#	150
#	13873
#	27030
#	40530
#	51390
#	62143
#	73213
#	86363
#	96353
#	107915
#	120105
#	132990
#	144170
#	155515
#	165905
#	177420
#
# Disc length: 2514 seconds
#
# Revision: 2
# Processed by: cddbd v1.5.1PL0 Copyright (c) Steve Scherf et al.
# Submitted via: CDex 1.51
#
DISCID=ce09d010
DTITLE=Channels - Greatest Hits The Channels Featuring Earl Lewis
DYEAR=1900
DGENRE=Doo Wop
TTITLE0=The Closer You Are
TTITLE1=What Do You Do
TTITLE2=The Girl Next Door
TTITLE3=Altar Of Love
TTITLE4=My Love Will Never Die
TTITLE5=Stars In The Sky
TTITLE6=Flames In My Heart
TTITLE7=Stay As You Are
TTITLE8=That's My Desire
TTITLE9=Now You Know
TTITLE10=The Gleam In Your Eye
TTITLE11=All Alone
TTITLE12=My Heart Is Sad
TTITLE13=My Lovin' Baby
TTITLE14=I Really Love You
TTITLE15=Bye Bye Baby
EXTD=
EXTT0=
EXTT1=
EXTT2=
EXTT3=
EXTT4=
EXTT5=
EXTT6=
EXTT7=
EXTT8=
EXTT9=
EXTT10=
EXTT11=
EXTT12=
EXTT13=
EXTT14=
EXTT15=
PLAYORDER=
